<svg width="16" height="16" viewBox="0 0 16 16" fill="none" xmlns="http://www.w3.org/2000/svg">
<path d="M11.1956 9.06667C11.3232 8.72558 11.3879 8.36418 11.3867 8C11.3867 7.19138 11.0654 6.41589 10.4937 5.84411C9.92189 5.27233 9.14639 4.95111 8.33778 4.95111C7.97808 4.95153 7.62136 5.01625 7.28444 5.14222L8 5.88C8.10877 5.8626 8.21873 5.85368 8.32889 5.85333C8.90064 5.85214 9.44963 6.07722 9.856 6.47942C10.2624 6.88162 10.4931 7.42827 10.4978 8C10.4974 8.11015 10.4885 8.22011 10.4711 8.32889L11.1956 9.06667Z" fill="#C7D2D6"/>
<path d="M15.24 7.79113C13.7422 5.02224 11.1156 3.34668 8.20889 3.34668C7.41749 3.34854 6.63141 3.47605 5.88 3.72446L6.59556 4.44446C7.1226 4.30825 7.66453 4.23808 8.20889 4.23557C10.7111 4.23557 12.9867 5.63112 14.3422 7.98224C13.845 8.85451 13.1858 9.62383 12.4 10.2489L13.0311 10.88C13.9405 10.1464 14.6957 9.2401 15.2533 8.21335L15.3689 8.00001L15.24 7.79113Z" fill="#C7D2D6"/>
<path d="M2.16444 2.5689L4.14667 4.55112C2.89374 5.35784 1.86973 6.47369 1.17333 7.79112L1.05778 8.00001L1.17333 8.21334C2.67111 10.9822 5.29778 12.6578 8.20444 12.6578C9.33896 12.6576 10.4587 12.4008 11.48 11.9067L13.7022 14.1289L14.48 13.4622L2.92444 1.90668L2.16444 2.5689ZM6.49778 6.90223L9.45333 9.85779C9.11939 10.0645 8.73495 10.1752 8.34222 10.1778C8.05686 10.1778 7.77431 10.1214 7.51083 10.0118C7.24736 9.90216 7.00816 9.74153 6.80699 9.53913C6.60583 9.33673 6.44668 9.09655 6.33869 8.8324C6.23071 8.56826 6.17602 8.28537 6.17778 8.00001C6.18278 7.61182 6.29341 7.23231 6.49778 6.90223ZM5.85333 6.25779C5.43753 6.84419 5.24263 7.55881 5.30316 8.27512C5.36369 8.99142 5.67573 9.66321 6.18405 10.1715C6.69236 10.6798 7.36414 10.9919 8.08045 11.0524C8.79676 11.1129 9.51138 10.918 10.0978 10.5022L10.8089 11.2133C9.98568 11.5652 9.0997 11.7467 8.20444 11.7467C5.70222 11.7467 3.42667 10.3511 2.07111 8.00001C2.72165 6.84811 3.65854 5.88366 4.79111 5.20001L5.85333 6.25779Z" fill="#C7D2D6"/>
</svg>
