<svg width="150" height="50" viewBox="0 0 150 50" fill="none" xmlns="http://www.w3.org/2000/svg">
<rect x="0.5" y="0.5" width="149" height="49" rx="9.5" fill="white" stroke="#BCBEC0"/>
<g clip-path="url(#clip0_7_553)">
<path d="M86.7662 22.6496H85.7996V22.5998H74.9998V27.3998H81.7815C80.7921 30.1939 78.1335 32.1997 74.9998 32.1997C71.0237 32.1997 67.7999 28.9759 67.7999 24.9998C67.7999 21.0237 71.0237 17.7999 74.9998 17.7999C76.8352 17.7999 78.5049 18.4923 79.7763 19.6233L83.1705 16.2291C81.0273 14.2318 78.1605 13 74.9998 13C68.3729 13 63 18.3729 63 24.9998C63 31.6267 68.3729 36.9996 74.9998 36.9996C81.6267 36.9996 86.9996 31.6267 86.9996 24.9998C86.9996 24.1952 86.9168 23.4098 86.7662 22.6496Z" fill="#FFC107"/>
<path d="M64.3828 19.4145L68.3253 22.3058C69.3921 19.6647 71.9757 17.7999 74.999 17.7999C76.8344 17.7999 78.5041 18.4923 79.7755 19.6233L83.1697 16.2291C81.0265 14.2318 78.1597 13 74.999 13C70.3899 13 66.3927 15.6022 64.3828 19.4145Z" fill="#FF3D00"/>
<path d="M75 37C78.0995 37 80.9159 35.8138 83.0452 33.8848L79.3313 30.7421C78.0861 31.6891 76.5644 32.2013 75 32.2001C71.8788 32.2001 69.2287 30.2099 68.2303 27.4326L64.3172 30.4475C66.3031 34.3336 70.3363 37 75 37Z" fill="#4CAF50"/>
<path d="M86.7662 22.6496H85.7996V22.5998H74.9998V27.3998H81.7815C81.3082 28.7296 80.4557 29.8916 79.3293 30.7423L79.3311 30.7411L83.045 33.8838C82.7823 34.1226 86.9996 30.9997 86.9996 24.9998C86.9996 24.1952 86.9168 23.4098 86.7662 22.6496Z" fill="#1976D2"/>
</g>
<defs>
<clipPath id="clip0_7_553">
<rect x="63" y="13" width="24" height="24" rx="12" fill="white"/>
</clipPath>
</defs>
</svg>
