<svg width="18" height="17" viewBox="0 0 18 17" fill="none" xmlns="http://www.w3.org/2000/svg">
<path d="M16.7589 8.37482L9.40357 1.02482C9.35061 0.971754 9.28771 0.929655 9.21846 0.900931C9.14921 0.872207 9.07497 0.857422 9 0.857422C8.92503 0.857422 8.8508 0.872207 8.78155 0.900931C8.7123 0.929655 8.64939 0.971754 8.59643 1.02482L1.24107 8.37482C1.02679 8.5891 0.905357 8.88017 0.905357 9.18375C0.905357 9.8141 1.41786 10.3266 2.04821 10.3266H2.82322V15.5712C2.82322 15.8873 3.07857 16.1427 3.39464 16.1427H7.85714V12.1427H9.85714V16.1427H14.6054C14.9214 16.1427 15.1768 15.8873 15.1768 15.5712V10.3266H15.9518C16.2554 10.3266 16.5464 10.207 16.7607 9.99089C17.2054 9.54446 17.2054 8.82125 16.7589 8.37482Z" fill="#1B3B6F"/>
</svg>
