<svg width="16" height="17" viewBox="0 0 16 17" fill="none" xmlns="http://www.w3.org/2000/svg">
<g clip-path="url(#clip0_1_8949)">
<path d="M6.24449 12.9658V12.8826C6.24449 12.2643 5.85872 11.7253 5.37572 11.3395C4.7453 10.8367 4.28674 10.1505 4.06353 9.37562C3.84031 8.60079 3.86346 7.77572 4.12979 7.01463C4.39611 6.25354 4.89243 5.59405 5.55006 5.12744C6.20768 4.66083 6.99409 4.41018 7.80044 4.41018C8.60678 4.41018 9.39319 4.66083 10.0508 5.12744C10.7084 5.59405 11.2048 6.25354 11.4711 7.01463C11.7374 7.77572 11.7606 8.60079 11.5373 9.37562C11.3141 10.1505 10.8556 10.8367 10.2252 11.3395C9.74138 11.7261 9.3556 12.2643 9.3556 12.8826V12.9658M6.24449 12.9658V14.5214C6.24449 14.7277 6.32644 14.9255 6.4723 15.0714C6.61816 15.2172 6.81599 15.2992 7.02227 15.2992H8.57783C8.78411 15.2992 8.98194 15.2172 9.1278 15.0714C9.27366 14.9255 9.3556 14.7277 9.3556 14.5214V12.9658M6.24449 12.9658H9.3556M14.0223 8.29916H14.8M1.57783 8.29916H0.800049M7.80005 2.07694V1.29916M12.1999 3.89927L12.7498 3.34939M3.40094 3.89927L2.85027 3.34939M7.80005 10.6325V9.07694" stroke="white" stroke-width="1.6" stroke-linecap="round" stroke-linejoin="round"/>
<path d="M6.24449 12.9658V12.8826C6.24449 12.2643 5.85872 11.7253 5.37572 11.3395C4.7453 10.8367 4.28674 10.1505 4.06353 9.37562C3.84031 8.60079 3.86346 7.77572 4.12979 7.01463C4.39611 6.25354 4.89243 5.59405 5.55006 5.12744C6.20768 4.66083 6.99409 4.41018 7.80044 4.41018C8.60678 4.41018 9.39319 4.66083 10.0508 5.12744C10.7084 5.59405 11.2048 6.25354 11.4711 7.01463C11.7374 7.77572 11.7606 8.60079 11.5373 9.37562C11.3141 10.1505 10.8556 10.8367 10.2252 11.3395C9.74138 11.7261 9.3556 12.2643 9.3556 12.8826V12.9658M6.24449 12.9658V14.5214C6.24449 14.7277 6.32644 14.9255 6.4723 15.0714C6.61816 15.2172 6.81599 15.2992 7.02227 15.2992H8.57783C8.78411 15.2992 8.98194 15.2172 9.1278 15.0714C9.27366 14.9255 9.3556 14.7277 9.3556 14.5214V12.9658M6.24449 12.9658H9.3556M14.0223 8.29916H14.8M1.57783 8.29916H0.800049M7.80005 2.07694V1.29916M12.1999 3.89927L12.7498 3.34939M3.40094 3.89927L2.85027 3.34939M7.80005 10.6325V9.07694" stroke="black" stroke-opacity="0.2" stroke-width="1.6" stroke-linecap="round" stroke-linejoin="round"/>
</g>
<defs>
<clipPath id="clip0_1_8949">
<rect width="16" height="16" fill="white" transform="translate(0 0.5)"/>
</clipPath>
</defs>
</svg>
