<svg width="16" height="17" viewBox="0 0 16 17" fill="none" xmlns="http://www.w3.org/2000/svg">
<path d="M14.6667 2.5H10.6667C9.95942 2.5 9.28115 2.78095 8.78105 3.28105C8.28095 3.78115 8 4.45942 8 5.16667V14.5C8 13.9696 8.21071 13.4609 8.58579 13.0858C8.96086 12.7107 9.46957 12.5 10 12.5H14.6667V2.5Z" stroke="white" stroke-width="2" stroke-linecap="round" stroke-linejoin="round"/>
<path d="M1.33334 2.5H5.33334C6.04059 2.5 6.71886 2.78095 7.21896 3.28105C7.71906 3.78115 8.00001 4.45942 8.00001 5.16667V14.5C8.00001 13.9696 7.7893 13.4609 7.41422 13.0858C7.03915 12.7107 6.53044 12.5 6.00001 12.5H1.33334V2.5Z" stroke="white" stroke-width="2" stroke-linecap="round" stroke-linejoin="round"/>
</svg>
