<svg width="20" height="20" viewBox="0 0 20 20" fill="none" xmlns="http://www.w3.org/2000/svg">
<path d="M8.325 18.9833C7.825 18.9833 7.35 18.7333 7.025 18.2917L6.02501 16.9583C6.02501 16.9667 5.98334 16.9417 5.96667 16.9417H5.65835C2.80835 16.9417 1.04167 16.1667 1.04167 12.325V8.99167C1.04167 5.48334 3.18335 4.56667 4.98335 4.40834C5.18335 4.38334 5.41668 4.375 5.65835 4.375H10.9917C14.0083 4.375 15.6083 5.97501 15.6083 8.99167V12.325C15.6083 12.5667 15.6 12.8 15.5667 13.025C15.4167 14.8 14.5 16.9417 10.9917 16.9417H10.6583L9.62499 18.2917C9.29999 18.7333 8.825 18.9833 8.325 18.9833ZM5.65835 5.625C5.46668 5.625 5.28334 5.63333 5.10834 5.65C3.17501 5.81667 2.29167 6.87501 2.29167 8.99167V12.325C2.29167 15.1833 3.17501 15.6917 5.65835 15.6917H5.99167C6.36667 15.6917 6.79167 15.9 7.025 16.2L8.02501 17.5417C8.20834 17.7917 8.44168 17.7917 8.62501 17.5417L9.62499 16.2083C9.86666 15.8833 10.25 15.6917 10.6583 15.6917H10.9917C13.1083 15.6917 14.1667 14.8 14.325 12.9C14.35 12.7 14.3583 12.5167 14.3583 12.325V8.99167C14.3583 6.66667 13.3167 5.625 10.9917 5.625H5.65835Z" fill="#171717"/>
<path d="M8.3252 11.825C7.85853 11.825 7.49187 11.45 7.49187 10.9917C7.49187 10.5333 7.86687 10.1583 8.3252 10.1583C8.78353 10.1583 9.15853 10.5333 9.15853 10.9917C9.15853 11.45 8.79187 11.825 8.3252 11.825Z" fill="#171717"/>
<path d="M10.9916 11.825C10.5249 11.825 10.1583 11.45 10.1583 10.9917C10.1583 10.5333 10.5333 10.1583 10.9916 10.1583C11.4499 10.1583 11.8249 10.5333 11.8249 10.9917C11.8249 11.45 11.4499 11.825 10.9916 11.825Z" fill="#171717"/>
<path d="M5.66651 11.825C5.19984 11.825 4.83318 11.45 4.83318 10.9917C4.83318 10.5333 5.20818 10.1583 5.66651 10.1583C6.12484 10.1583 6.49984 10.5333 6.49984 10.9917C6.49984 11.45 6.12484 11.825 5.66651 11.825Z" fill="#171717"/>
<path d="M14.9501 13.575C14.7835 13.575 14.6168 13.5083 14.5001 13.3833C14.3668 13.25 14.3085 13.0583 14.3335 12.875C14.3585 12.7 14.3668 12.5167 14.3668 12.325V8.99166C14.3668 6.66666 13.3251 5.62499 11.0001 5.62499H5.66677C5.47511 5.62499 5.2918 5.63332 5.1168 5.64999C4.93346 5.67499 4.74178 5.60831 4.60845 5.48331C4.47512 5.34998 4.40011 5.16667 4.41677 4.98333C4.56677 3.18333 5.49177 1.04166 9.00011 1.04166H14.3335C17.3501 1.04166 18.9501 2.64166 18.9501 5.65833V8.99166C18.9501 12.5 16.8085 13.4167 15.0085 13.575C14.9835 13.575 14.9668 13.575 14.9501 13.575ZM5.76679 4.37499H10.9918C14.0085 4.37499 15.6085 5.975 15.6085 8.99166V12.2167C17.0251 11.8667 17.6918 10.825 17.6918 8.99166V5.65833C17.6918 3.33333 16.6501 2.29166 14.3251 2.29166H8.99179C7.15846 2.29166 6.12513 2.95832 5.76679 4.37499Z" fill="#171717"/>
</svg>
