<svg width="18" height="18" viewBox="0 0 18 18" fill="none" xmlns="http://www.w3.org/2000/svg">
<path d="M15.6675 3.88499V12.36C15.6675 13.845 14.46 15.0525 12.975 15.0525C11.4975 15.0525 10.2825 13.845 10.2825 12.36C10.2825 10.8825 11.4975 9.67499 12.975 9.67499C13.605 9.67499 14.1675 9.89249 14.625 10.2525V5.78999L7.7175 7.75499V13.8075C7.7175 15.2925 6.5025 16.5 5.025 16.5C3.54 16.5 2.3325 15.2925 2.3325 13.8075C2.3325 12.33 3.54 11.1225 5.025 11.1225C5.6475 11.1225 6.21 11.34 6.6675 11.6925V5.06249C6.6675 3.95999 7.335 3.10499 8.3925 2.81999L12.7275 1.63499C13.605 1.39499 14.3475 1.47749 14.8725 1.88249C15.405 2.27999 15.6675 2.95499 15.6675 3.88499Z" fill="#171717"/>
</svg>
